<?xml version="1.0" encoding="UTF-8" standalone="no"?>
<svg
   xmlns:dc="http://purl.org/dc/elements/1.1/"
   xmlns:cc="http://creativecommons.org/ns#"
   xmlns:rdf="http://www.w3.org/1999/02/22-rdf-syntax-ns#"
   xmlns:svg="http://www.w3.org/2000/svg"
   xmlns="http://www.w3.org/2000/svg"
   viewBox="0 0 38.470001 40.945732"
   height="40.945732"
   width="38.470001"
   xml:space="preserve"
   id="svg2"
   version="1.1"><metadata
     id="metadata8"><rdf:RDF><cc:Work
         rdf:about=""><dc:format>image/svg+xml</dc:format><dc:type
           rdf:resource="http://purl.org/dc/dcmitype/StillImage" /></cc:Work></rdf:RDF></metadata><defs
     id="defs6"><clipPath
       id="clipPath18"
       clipPathUnits="userSpaceOnUse"><path
         id="path16"
         d="M 0,30.709 H 28.852 V 0 H 0 Z" /></clipPath></defs><g
     transform="matrix(1.3333333,0,0,-1.3333333,0,40.945733)"
     id="g10"><g
       id="g12"><g
         clip-path="url(#clipPath18)"
         id="g14"><g
           transform="translate(16.0249,30.7085)"
           id="g20"><path
             id="path22"
             style="fill:#094067;fill-opacity:1;fill-rule:nonzero;stroke:none"
             d="M 0,0 C 5.127,0.044 9.247,-4.039 9.23,-9.181 9.215,-14.378 5.063,-18.32 0.055,-18.334 -4.989,-18.349 -9.099,-14.249 -9.12,-9.192 -9.14,-4.121 -5.061,-0.009 0,0 m -3.604,-16.071 0.022,-0.048 -0.034,0.037 c -0.299,0.629 -0.596,1.258 -0.85,1.792 h -1.288 c -0.043,-0.086 -0.085,-0.173 -0.128,-0.259 0.758,-0.507 1.519,-1.014 2.278,-1.522 m 2.974,7.62 v 2.957 h -2.941 c -0.185,-0.98 -0.366,-1.932 -0.558,-2.957 z m 0.009,-4.437 v 2.964 h -3.494 c 0.202,-1.057 0.388,-2.019 0.571,-2.964 z m 1.396,7.387 V -8.429 H 4.219 C 4.02,-7.381 3.84,-6.428 3.663,-5.501 Z m -0.017,-7.41 h 2.901 c 0.179,0.986 0.353,1.946 0.538,2.974 H 0.758 Z M 5.053,-5.49 C 5.195,-6.539 5.326,-7.489 5.452,-8.413 H 7.984 C 7.674,-7.356 7.397,-6.42 7.124,-5.49 Z M -5.3,-8.443 c 0.098,1.012 0.192,1.956 0.289,2.95 h -1.871 c -0.438,-0.891 -0.977,-1.786 -0.8,-2.95 z m 0,-1.54 h -2.634 c 0.382,-1.124 0.698,-2.057 0.985,-2.905 h 1.96 c -0.111,1.024 -0.212,1.969 -0.311,2.905 m 10.335,-2.849 c 2.174,-0.589 2.632,0.485 2.708,2.929 H 5.464 c -0.145,-0.983 -0.282,-1.933 -0.429,-2.929 m -5.657,8.701 v 2.754 c -1.264,-0.596 -1.919,-1.551 -2.429,-2.754 z m -2.443,-10.125 c 0.623,-1.145 1.141,-2.194 2.442,-2.57 v 2.57 z m 6.297,10.118 c -0.701,1.172 -1.184,2.22 -2.434,2.665 v -2.665 z m -2.453,-10.14 v -2.565 c 1.277,0.507 1.788,1.476 2.358,2.565 z m -6.695,10.376 0.115,-0.246 h 1.278 c 0.306,0.613 0.609,1.22 0.913,1.826 -0.059,0.05 -0.119,0.099 -0.179,0.149 -0.709,-0.576 -1.418,-1.153 -2.127,-1.729 m 11.804,-0.227 0.12,0.237 C 5.286,-3.32 4.565,-2.748 3.845,-2.176 3.798,-2.237 3.751,-2.299 3.703,-2.36 4.015,-2.952 4.325,-3.544 4.633,-4.129 Z M 4.585,-14.255 C 4.266,-14.87 3.972,-15.435 3.679,-16 c 0.05,-0.053 0.099,-0.105 0.149,-0.158 0.708,0.57 1.415,1.14 2.123,1.71 -0.042,0.064 -0.084,0.129 -0.126,0.193 z" /></g><g
           transform="translate(21.8941,7.392)"
           id="g24"><path
             id="path26"
             style="fill:#094067;fill-opacity:1;fill-rule:nonzero;stroke:none"
             d="M 0,0 C 1.275,0.747 2.536,1.52 3.834,2.224 4.247,2.447 4.752,2.555 5.226,2.603 6.545,2.736 7.392,1.65 6.726,0.52 6.075,-0.586 5.291,-1.741 4.277,-2.479 2.264,-3.945 0.043,-5.123 -2.073,-6.452 -4.298,-7.85 -6.53,-7.518 -8.786,-6.569 c -1.833,0.769 -3.629,1.658 -5.517,2.252 -1.445,0.455 -2.985,0.398 -4.447,-0.281 -0.987,-0.459 -1.55,-0.236 -2.157,0.726 -0.91,1.441 -1.292,2.969 -0.71,4.652 0.086,0.248 -0.034,0.561 -0.011,0.839 0.037,0.447 0.115,0.893 0.163,1.252 1.511,0.216 2.818,0.358 4.105,0.606 0.721,0.137 1.411,0.444 2.112,0.683 2.355,0.801 4.538,0.345 6.678,-0.796 0.708,-0.377 1.544,-0.654 2.336,-0.696 1.218,-0.065 2.457,0.052 3.672,0.202 1.844,0.228 2.945,-0.966 2.572,-2.881 z m -19.56,-3.52 c 1.839,0.786 3.674,1.17 5.551,0.46 2.048,-0.773 4.045,-1.688 6.102,-2.437 1.18,-0.431 2.352,-0.933 3.724,-0.451 2.05,0.719 3.841,1.864 5.626,3.042 1.404,0.927 2.869,1.791 3.788,3.277 C 5.396,0.638 5.495,0.946 5.623,1.236 5.562,1.31 5.5,1.383 5.438,1.455 4.797,1.197 4.115,1.009 3.52,0.669 1.769,-0.334 0.056,-1.403 -1.679,-2.435 -2.78,-3.087 -3.985,-3.31 -5.229,-3.056 c -1.423,0.291 -2.829,0.669 -4.235,1.036 -0.225,0.059 -0.413,0.255 -0.572,0.36 -0.087,0.859 0.378,1.171 1.006,1.203 0.652,0.034 1.31,-0.084 1.966,-0.106 1.31,-0.043 2.626,-0.149 3.929,-0.073 1.158,0.07 1.968,0.98 1.868,2.056 -0.549,0.017 -1.13,0.091 -1.702,0.043 -2.445,-0.204 -4.828,-0.287 -7.051,1.123 -1.718,1.09 -3.584,0.812 -5.443,0.189 -1.182,-0.396 -2.417,-0.637 -3.631,-0.936 -0.377,-0.092 -0.764,-0.147 -1.144,-0.216 -0.108,-1.812 -0.778,-3.577 0.678,-5.143" /></g></g></g></g></svg>