<?xml version="1.0" encoding="UTF-8"?>
<svg xmlns="http://www.w3.org/2000/svg" xmlns:xlink="http://www.w3.org/1999/xlink" width="23.715pt" height="30.17pt" viewBox="0 0 23.715 30.17" version="1.1">
<defs>
<clipPath id="clip1">
  <path d="M 0 0 L 23.714844 0 L 23.714844 30.171875 L 0 30.171875 Z M 0 0 "/>
</clipPath>
</defs>
<g id="surface1">
<g clip-path="url(#clip1)" clip-rule="nonzero">
<path style=" stroke:none;fill-rule:nonzero;fill:rgb(0%,21.998596%,38.798523%);fill-opacity:1;" d="M 4.527344 26.027344 C 3.640625 26.363281 2.773438 26.691406 1.90625 27.019531 C 1.523438 27.164063 1.136719 27.304688 0.753906 27.445313 C 0.527344 27.527344 0.324219 27.476563 0.164063 27.304688 C 0.0078125 27.140625 -0.0507813 26.941406 0.0507813 26.726563 C 0.179688 26.445313 0.324219 26.171875 0.460938 25.894531 C 0.558594 25.699219 0.652344 25.5 0.75 25.304688 C 0.90625 24.984375 1.070313 24.664063 1.230469 24.34375 C 1.5 23.800781 1.773438 23.253906 2.046875 22.707031 C 2.46875 21.863281 2.890625 21.019531 3.3125 20.175781 C 3.742188 19.316406 4.167969 18.460938 4.597656 17.601563 C 4.644531 17.507813 4.601563 17.464844 4.546875 17.40625 C 4.113281 16.96875 3.726563 16.5 3.386719 15.992188 C 2.898438 15.265625 2.496094 14.496094 2.210938 13.671875 C 2.019531 13.121094 1.875 12.5625 1.773438 11.988281 C 1.613281 11.101563 1.570313 10.210938 1.65625 9.320313 C 1.714844 8.660156 1.84375 8.011719 2.027344 7.375 C 2.40625 6.050781 3.046875 4.867188 3.90625 3.796875 C 4.828125 2.648438 5.949219 1.757813 7.253906 1.089844 C 7.878906 0.769531 8.527344 0.507813 9.214844 0.351563 C 9.65625 0.253906 10.101563 0.179688 10.542969 0.09375 C 11.207031 -0.0351563 11.878906 -0.0117188 12.542969 0.0273438 C 13.078125 0.0585938 13.609375 0.167969 14.136719 0.261719 C 14.851563 0.394531 15.53125 0.652344 16.1875 0.957031 C 17.03125 1.34375 17.796875 1.847656 18.503906 2.445313 C 19.246094 3.074219 19.882813 3.800781 20.417969 4.613281 C 20.828125 5.234375 21.191406 5.886719 21.425781 6.597656 C 21.613281 7.160156 21.792969 7.726563 21.917969 8.308594 C 22.09375 9.140625 22.164063 9.988281 22.082031 10.839844 C 22.035156 11.324219 21.992188 11.808594 21.902344 12.285156 C 21.726563 13.171875 21.429688 14.019531 21.019531 14.828125 C 20.671875 15.519531 20.25 16.164063 19.757813 16.761719 C 19.574219 16.984375 19.371094 17.199219 19.171875 17.410156 C 19.101563 17.484375 19.09375 17.539063 19.140625 17.632813 C 19.792969 18.929688 20.4375 20.226563 21.085938 21.523438 C 21.355469 22.0625 21.628906 22.597656 21.894531 23.132813 C 22.476563 24.292969 23.050781 25.453125 23.636719 26.613281 C 23.863281 27.066406 23.5625 27.457031 23.214844 27.472656 C 23.058594 27.480469 22.890625 27.414063 22.734375 27.359375 C 22.074219 27.117188 21.414063 26.867188 20.753906 26.617188 C 20.261719 26.429688 19.765625 26.238281 19.273438 26.054688 C 19.242188 26.046875 19.167969 26.070313 19.15625 26.097656 C 18.929688 26.691406 18.710938 27.289063 18.488281 27.886719 C 18.25 28.519531 18.015625 29.15625 17.777344 29.785156 C 17.6875 30.007813 17.535156 30.144531 17.28125 30.160156 C 16.996094 30.175781 16.820313 30.035156 16.710938 29.792969 C 16.527344 29.386719 16.347656 28.984375 16.164063 28.578125 C 15.691406 27.523438 15.214844 26.46875 14.738281 25.414063 C 14.320313 24.484375 13.90625 23.550781 13.488281 22.621094 C 13.183594 21.941406 12.875 21.257813 12.5625 20.578125 C 12.539063 20.535156 12.464844 20.484375 12.414063 20.484375 C 12.046875 20.476563 11.679688 20.476563 11.308594 20.484375 C 11.257813 20.484375 11.183594 20.53125 11.164063 20.578125 C 10.753906 21.476563 10.351563 22.378906 9.949219 23.277344 C 9.503906 24.257813 9.054688 25.234375 8.617188 26.21875 C 8.367188 26.773438 8.128906 27.335938 7.882813 27.894531 C 7.804688 28.074219 7.707031 28.25 7.625 28.433594 C 7.421875 28.878906 7.214844 29.320313 7.023438 29.773438 C 6.839844 30.214844 6.375 30.265625 6.140625 30.039063 C 6.007813 29.917969 5.929688 29.726563 5.863281 29.550781 C 5.601563 28.878906 5.351563 28.199219 5.097656 27.519531 C 4.921875 27.054688 4.746094 26.585938 4.570313 26.117188 C 4.558594 26.089844 4.546875 26.066406 4.527344 26.027344 M 20.984375 10.242188 C 21.003906 5.203125 16.894531 1.132813 11.910156 1.113281 C 6.8125 1.09375 2.757813 5.214844 2.738281 10.195313 C 2.71875 15.320313 6.851563 19.347656 11.800781 19.371094 C 16.902344 19.398438 20.996094 15.277344 20.984375 10.242188 M 18.214844 18.277344 C 17.53125 18.796875 16.832031 19.234375 16.074219 19.578125 C 15.308594 19.925781 14.515625 20.164063 13.679688 20.332031 C 14.847656 22.929688 16.007813 25.511719 17.183594 28.117188 C 17.226563 28.046875 17.253906 28.007813 17.269531 27.96875 C 17.449219 27.484375 17.628906 26.996094 17.808594 26.511719 C 17.984375 26.039063 18.160156 25.5625 18.34375 25.09375 C 18.457031 24.808594 18.773438 24.679688 19.054688 24.789063 C 19.382813 24.914063 19.710938 25.042969 20.039063 25.164063 C 20.484375 25.332031 20.933594 25.496094 21.378906 25.660156 C 21.578125 25.734375 21.777344 25.804688 21.976563 25.875 C 21.984375 25.863281 21.992188 25.855469 22 25.847656 C 20.738281 23.328125 19.480469 20.8125 18.214844 18.277344 M 1.703125 25.886719 C 1.804688 25.855469 1.863281 25.839844 1.917969 25.816406 C 2.363281 25.652344 2.800781 25.488281 3.242188 25.320313 C 3.667969 25.160156 4.089844 25 4.511719 24.84375 C 4.699219 24.769531 4.882813 24.703125 5.089844 24.800781 C 5.324219 24.902344 5.394531 25.113281 5.472656 25.324219 C 5.769531 26.121094 6.066406 26.921875 6.363281 27.71875 C 6.414063 27.84375 6.464844 27.964844 6.515625 28.089844 C 6.53125 28.089844 6.542969 28.089844 6.554688 28.085938 C 7.71875 25.507813 8.878906 22.925781 10.046875 20.328125 C 8.359375 20.011719 6.855469 19.332031 5.511719 18.277344 C 4.242188 20.816406 2.980469 23.332031 1.703125 25.886719 "/>
</g>
<path style=" stroke:none;fill-rule:nonzero;fill:rgb(0%,21.998596%,38.798523%);fill-opacity:1;" d="M 19.414063 10.226563 C 19.417969 14.414063 16.054688 17.816406 11.824219 17.796875 C 7.683594 17.78125 4.28125 14.433594 4.3125 10.167969 C 4.339844 6.082031 7.664063 2.667969 11.90625 2.6875 C 16.039063 2.707031 19.402344 6.050781 19.414063 10.226563 M 11.851563 16.664063 C 15.425781 16.703125 18.277344 13.800781 18.300781 10.304688 C 18.328125 6.667969 15.421875 3.820313 11.890625 3.808594 C 8.28125 3.796875 5.445313 6.679688 5.421875 10.195313 C 5.394531 13.808594 8.324219 16.695313 11.851563 16.664063 "/>
<path style=" stroke:none;fill-rule:nonzero;fill:rgb(0%,21.998596%,38.798523%);fill-opacity:1;" d="M 10.921875 12.152344 C 11.191406 11.777344 11.445313 11.421875 11.699219 11.066406 C 12.289063 10.25 12.878906 9.433594 13.464844 8.617188 C 13.945313 7.949219 14.433594 7.285156 14.898438 6.601563 C 15.25 6.078125 15.953125 6.085938 16.277344 6.496094 C 16.480469 6.757813 16.511719 7.191406 16.3125 7.476563 C 15.792969 8.207031 15.265625 8.933594 14.746094 9.660156 C 14.25 10.347656 13.753906 11.039063 13.257813 11.726563 C 12.75 12.441406 12.238281 13.152344 11.730469 13.867188 C 11.515625 14.167969 11.238281 14.347656 10.855469 14.285156 C 10.664063 14.253906 10.503906 14.160156 10.375 14.019531 C 9.941406 13.535156 9.511719 13.054688 9.078125 12.570313 C 8.550781 11.980469 8.019531 11.390625 7.492188 10.800781 C 7.261719 10.542969 7.210938 10.148438 7.367188 9.859375 C 7.550781 9.527344 7.871094 9.367188 8.242188 9.429688 C 8.417969 9.460938 8.574219 9.542969 8.695313 9.679688 C 9.09375 10.117188 9.488281 10.558594 9.882813 10.996094 C 10.222656 11.375 10.566406 11.753906 10.921875 12.152344 "/>
</g>
</svg>
