<?xml version="1.0" encoding="UTF-8" standalone="no"?>
<svg
   xmlns:dc="http://purl.org/dc/elements/1.1/"
   xmlns:cc="http://creativecommons.org/ns#"
   xmlns:rdf="http://www.w3.org/1999/02/22-rdf-syntax-ns#"
   xmlns:svg="http://www.w3.org/2000/svg"
   xmlns="http://www.w3.org/2000/svg"
   viewBox="0 0 37.108131 37.183201"
   height="37.183201"
   width="37.108131"
   xml:space="preserve"
   id="svg2"
   version="1.1"><metadata
     id="metadata8"><rdf:RDF><cc:Work
         rdf:about=""><dc:format>image/svg+xml</dc:format><dc:type
           rdf:resource="http://purl.org/dc/dcmitype/StillImage" /></cc:Work></rdf:RDF></metadata><defs
     id="defs6"><clipPath
       id="clipPath18"
       clipPathUnits="userSpaceOnUse"><path
         id="path16"
         d="M 0,27.887 H 27.831 V 0 H 0 Z" /></clipPath></defs><g
     transform="matrix(1.3333333,0,0,-1.3333333,0,37.1832)"
     id="g10"><g
       id="g12"><g
         clip-path="url(#clipPath18)"
         id="g14"><g
           transform="translate(13.8954,27.8874)"
           id="g20"><path
             id="path22"
             style="fill:#094067;fill-opacity:1;fill-rule:nonzero;stroke:none"
             d="m 0,0 c 1.072,-0.042 2.122,-0.17 3.164,-0.408 2.458,-0.563 4.591,-1.722 6.416,-3.453 1.196,-1.134 2.178,-2.434 2.91,-3.914 0.476,-0.965 0.834,-1.974 1.076,-3.027 0.295,-1.283 0.423,-2.578 0.349,-3.89 -0.055,-0.985 -0.213,-1.955 -0.469,-2.913 -0.589,-2.201 -1.668,-4.127 -3.205,-5.797 -1.2,-1.304 -2.599,-2.344 -4.201,-3.112 -0.841,-0.402 -1.71,-0.722 -2.612,-0.949 -1.593,-0.402 -3.208,-0.517 -4.841,-0.351 -1.331,0.135 -2.621,0.453 -3.86,0.965 -1.592,0.657 -3.011,1.581 -4.266,2.763 -1.205,1.134 -2.174,2.441 -2.916,3.913 -0.409,0.812 -0.753,1.654 -0.951,2.544 -0.163,0.73 -0.305,1.466 -0.424,2.205 -0.049,0.305 -0.008,0.625 -0.017,0.938 -0.012,0.385 -0.061,0.77 -0.045,1.154 0.037,0.854 0.16,1.697 0.351,2.534 0.482,2.106 1.42,3.984 2.782,5.653 1.04,1.273 2.27,2.33 3.684,3.169 0.83,0.493 1.693,0.923 2.625,1.187 0.745,0.211 1.494,0.426 2.256,0.562 C -1.472,-0.099 -0.732,-0.072 0,0 m -9.207,-5.173 c 0.009,-0.016 0.017,-0.031 0.026,-0.047 h 0.222 c 2.381,0 4.761,0.002 7.142,-0.004 0.212,0 0.429,-0.031 0.636,-0.08 1.046,-0.247 1.779,-1.18 1.78,-2.249 0,-1.441 0.002,-2.882 -0.004,-4.323 -0.001,-0.155 0.044,-0.244 0.187,-0.301 0.968,-0.389 1.489,-1.587 0.992,-2.625 -0.444,-0.925 -1.514,-1.357 -2.458,-0.984 -0.653,0.259 -1.063,0.741 -1.212,1.447 -0.18,0.847 0.276,1.794 1.071,2.133 0.179,0.076 0.245,0.171 0.244,0.37 -0.009,1.392 -0.019,2.784 0.001,4.176 0.011,0.73 -0.547,1.277 -1.272,1.26 -0.932,-0.021 -1.865,-0.005 -2.798,-0.005 -1.796,0 -3.592,-0.002 -5.388,0.003 -0.139,0 -0.232,-0.036 -0.307,-0.158 -0.157,-0.253 -0.332,-0.495 -0.491,-0.747 -0.481,-0.763 -0.86,-1.575 -1.166,-2.438 0.042,-0.012 0.074,-0.029 0.106,-0.029 1.35,-0.002 2.701,-0.004 4.051,0.003 0.064,0 0.161,0.067 0.188,0.127 0.394,0.879 1.07,1.269 2.025,1.211 0.934,-0.057 1.773,-0.932 1.747,-1.967 -0.023,-0.906 -0.656,-1.617 -1.43,-1.839 -0.884,-0.253 -1.961,0.217 -2.303,1.069 -0.07,0.172 -0.155,0.212 -0.321,0.211 -1.4,-0.005 -2.799,-0.002 -4.198,-0.003 -0.075,0 -0.149,-0.006 -0.278,-0.012 -0.127,-0.937 -0.253,-1.868 -0.38,-2.812 -0.105,0.112 -0.211,0.225 -0.318,0.339 0.053,-0.122 0.138,-0.216 0.215,-0.316 0.05,-0.064 0.131,-0.14 0.127,-0.206 -0.015,-0.235 0.123,-0.236 0.292,-0.235 1.218,0.003 2.436,-0.005 3.655,0.005 0.426,0.003 0.831,-0.063 1.204,-0.268 0.754,-0.414 1.194,-1.042 1.249,-1.91 0.024,-0.367 0.011,-0.737 0.009,-1.106 -0.003,-0.69 0.472,-1.287 1.259,-1.283 0.989,0.006 1.977,0.004 2.966,-0.001 0.132,-0.001 0.203,0.048 0.252,0.163 0.27,0.632 0.74,1.004 1.416,1.159 1.049,0.241 2.186,-0.536 2.32,-1.686 0.11,-0.957 -0.551,-1.919 -1.55,-2.13 -0.885,-0.187 -1.843,0.321 -2.17,1.114 -0.063,0.154 -0.147,0.203 -0.311,0.201 -0.953,-0.007 -1.907,-0.002 -2.861,-0.003 -0.371,-10e-4 -0.726,0.062 -1.074,0.205 -0.806,0.333 -1.4,1.194 -1.402,2.066 0,0.334 0.001,0.669 0,1.003 -10e-4,0.78 -0.528,1.314 -1.306,1.315 -1.19,0.003 -2.38,10e-4 -3.571,0 -0.074,0 -0.148,-0.008 -0.254,-0.015 0.052,-0.365 0.066,-0.716 0.157,-1.046 0.21,-0.767 0.421,-1.538 0.698,-2.283 0.488,-1.309 1.23,-2.476 2.138,-3.538 0.096,-0.113 0.192,-0.159 0.336,-0.158 1.755,0.004 3.509,0.007 5.263,-0.001 0.387,-0.002 0.783,-0.003 1.16,-0.08 0.805,-0.165 1.343,-0.676 1.663,-1.426 0.166,-0.389 0.152,-0.802 0.165,-1.209 0.013,-0.445 0.007,-0.891 0.001,-1.336 -0.002,-0.15 0.046,-0.214 0.202,-0.212 0.674,0.008 1.349,0.009 2.023,0.012 0.163,0.001 0.225,0.069 0.224,0.242 -0.007,1.003 -0.012,2.005 0.002,3.008 0.006,0.294 0.051,0.595 0.129,0.878 0.233,0.837 1.151,1.544 2.019,1.552 1.195,0.009 2.389,-0.007 3.584,-0.006 1.092,0 2.184,0.015 3.278,0.01 0.192,-0.001 0.298,0.067 0.398,0.226 0.43,0.689 0.817,1.404 1.086,2.167 0.254,0.718 0.477,1.452 0.638,2.195 0.129,0.6 0.14,1.226 0.214,1.84 0.021,0.181 -0.021,0.248 -0.214,0.244 -0.578,-0.01 -1.156,-0.017 -1.733,0.003 -0.26,0.009 -0.533,0.048 -0.775,0.138 -0.983,0.367 -1.561,1.229 -1.561,2.283 0,2.408 -10e-4,4.817 0.002,7.225 0,0.152 -0.044,0.254 -0.163,0.356 -0.854,0.74 -1.793,1.353 -2.813,1.83 -0.649,0.303 -1.332,0.533 -2.041,0.811 -0.01,-0.131 -0.02,-0.204 -0.018,-0.277 0.008,-0.444 0.029,-0.889 0.03,-1.334 0.004,-1.733 0.002,-3.466 10e-4,-5.2 0,-0.39 0.093,-0.737 0.395,-1.011 0.256,-0.228 0.56,-0.289 0.885,-0.305 0.499,-0.024 0.953,-0.177 1.345,-0.492 0.614,-0.492 0.912,-1.14 0.917,-1.921 0.007,-0.905 0.012,-1.81 -0.005,-2.715 -0.004,-0.235 0.081,-0.337 0.28,-0.432 1.03,-0.494 1.369,-1.755 0.821,-2.694 -0.426,-0.731 -1.083,-1.04 -1.94,-0.966 -0.89,0.076 -1.695,0.915 -1.703,1.853 -0.008,0.88 0.405,1.507 1.202,1.876 0.106,0.049 0.166,0.095 0.165,0.226 -0.005,0.946 0.006,1.893 -0.007,2.84 -0.008,0.763 -0.47,1.214 -1.236,1.242 -1.293,0.048 -2.301,1.089 -2.302,2.379 -0.003,2.311 -0.006,4.622 -0.003,6.933 0,0.165 -0.045,0.244 -0.213,0.254 -0.823,0.051 -1.647,0.142 -2.472,0.149 -0.763,0.008 -1.529,-0.078 -2.268,-0.281 -0.747,-0.206 -1.5,-0.411 -2.217,-0.698 -1.25,-0.5 -2.378,-1.218 -3.393,-2.106 -0.309,-0.271 -0.602,-0.561 -0.903,-0.843 M 9.77,-22.129 c -0.076,0.005 -0.109,0.01 -0.143,0.01 -1.962,0 -3.925,0.013 -5.887,-0.007 -0.705,-0.007 -1.177,-0.499 -1.198,-1.214 -0.027,-0.953 -0.003,-1.907 -0.009,-2.861 -0.002,-0.181 0.056,-0.243 0.233,-0.193 0.506,0.144 1.024,0.256 1.519,0.433 1.353,0.484 2.593,1.178 3.713,2.085 0.634,0.516 1.222,1.08 1.772,1.747 M 9.701,-5.682 c -0.023,-0.01 -0.046,-0.02 -0.07,-0.03 v -0.412 c 0,-1.913 0.008,-3.826 -0.004,-5.74 -0.003,-0.714 0.545,-1.271 1.257,-1.253 0.535,0.013 1.072,0.008 1.608,-10e-4 0.177,-0.003 0.238,0.055 0.209,0.23 -0.092,0.567 -0.154,1.141 -0.273,1.702 -0.11,0.514 -0.259,1.022 -0.431,1.518 -0.356,1.025 -0.85,1.984 -1.47,2.875 -0.263,0.378 -0.55,0.741 -0.826,1.111 M -8.238,-23.591 c 1.722,-1.526 3.71,-2.479 5.984,-2.906 0,0.623 0.014,1.206 -0.008,1.788 -0.006,0.185 -0.074,0.384 -0.167,0.546 -0.238,0.419 -0.628,0.581 -1.099,0.581 -1.509,-0.002 -3.018,-10e-4 -4.527,-10e-4 -0.061,0 -0.122,-0.005 -0.183,-0.008 m 2.407,12.47 c 0.422,0.003 0.748,0.33 0.751,0.754 0.002,0.43 -0.351,0.784 -0.778,0.779 -0.411,-0.006 -0.764,-0.37 -0.76,-0.785 0.004,-0.416 0.356,-0.751 0.787,-0.748 m 12.98,-5.951 c 0.038,0.329 -0.286,0.771 -0.762,0.768 -0.425,-0.004 -0.769,-0.347 -0.764,-0.77 0.004,-0.424 0.349,-0.767 0.767,-0.767 0.423,0 0.76,0.341 0.759,0.769 m -7.239,-3.034 c 0.404,-0.043 0.771,0.35 0.767,0.758 -0.003,0.42 -0.375,0.759 -0.775,0.759 -0.431,0 -0.768,-0.402 -0.765,-0.767 0.002,-0.354 0.333,-0.793 0.773,-0.75 m 0.848,6.139 c 0.021,0.379 -0.289,0.736 -0.66,0.757 -0.463,0.028 -0.815,-0.253 -0.839,-0.668 -0.027,-0.452 0.257,-0.813 0.648,-0.838 0.469,-0.03 0.855,0.285 0.851,0.749" /></g></g></g></g></svg>