<?xml version="1.0" encoding="UTF-8"?>
<svg xmlns="http://www.w3.org/2000/svg" xmlns:xlink="http://www.w3.org/1999/xlink" width="29.4481pt" height="24.9584pt" viewBox="0 0 29.4481 24.9584" version="1.1">
<defs>
<clipPath id="clip1">
  <path d="M 0 0 L 29.449219 0 L 29.449219 20 L 0 20 Z M 0 0 "/>
</clipPath>
<clipPath id="clip2">
  <path d="M 23 12 L 28 12 L 28 24.957031 L 23 24.957031 Z M 23 12 "/>
</clipPath>
<clipPath id="clip3">
  <path d="M 18 14 L 23 14 L 23 24.957031 L 18 24.957031 Z M 18 14 "/>
</clipPath>
<clipPath id="clip4">
  <path d="M 8 17 L 13 17 L 13 24.957031 L 8 24.957031 Z M 8 17 "/>
</clipPath>
<clipPath id="clip5">
  <path d="M 13 20 L 18 20 L 18 24.957031 L 13 24.957031 Z M 13 20 "/>
</clipPath>
<clipPath id="clip6">
  <path d="M 3 19 L 8 19 L 8 24.957031 L 3 24.957031 Z M 3 19 "/>
</clipPath>
</defs>
<g id="surface1">
<g clip-path="url(#clip1)" clip-rule="nonzero">
<path style=" stroke:none;fill-rule:nonzero;fill:rgb(0%,21.998596%,38.798523%);fill-opacity:1;" d="M 27.664063 1.53125 C 27.875 1.53125 27.945313 1.621094 27.910156 1.816406 C 27.824219 2.269531 27.746094 2.71875 27.65625 3.167969 C 27.609375 3.414063 27.542969 3.65625 27.492188 3.902344 C 27.472656 3.988281 27.46875 4.082031 27.453125 4.175781 C 27.414063 4.414063 27.371094 4.65625 27.324219 4.894531 C 27.273438 5.140625 27.214844 5.382813 27.160156 5.625 C 27.148438 5.6875 27.152344 5.75 27.140625 5.808594 C 27.09375 6.085938 27.046875 6.363281 26.992188 6.640625 C 26.941406 6.878906 26.878906 7.113281 26.828125 7.351563 C 26.804688 7.445313 26.800781 7.546875 26.785156 7.640625 C 26.742188 7.875 26.707031 8.113281 26.660156 8.34375 C 26.609375 8.589844 26.546875 8.832031 26.496094 9.078125 C 26.476563 9.167969 26.476563 9.261719 26.453125 9.351563 C 26.421875 9.476563 26.34375 9.546875 26.25 9.546875 C 26.191406 9.546875 26.128906 9.519531 26.066406 9.460938 C 25.953125 9.355469 25.847656 9.246094 25.738281 9.136719 C 25.285156 8.679688 24.828125 8.222656 24.371094 7.765625 C 24.308594 7.703125 24.28125 7.671875 24.25 7.671875 C 24.222656 7.671875 24.191406 7.703125 24.132813 7.761719 C 23.648438 8.246094 23.164063 8.734375 22.675781 9.222656 C 20.476563 11.417969 18.28125 13.617188 16.082031 15.8125 C 15.679688 16.214844 15.285156 16.613281 14.882813 17.015625 C 14.773438 17.125 14.691406 17.183594 14.605469 17.183594 C 14.523438 17.183594 14.441406 17.125 14.328125 17.015625 C 13.660156 16.347656 12.988281 15.675781 12.320313 15.007813 C 11.53125 14.214844 10.738281 13.421875 9.949219 12.632813 C 9.921875 12.605469 9.894531 12.578125 9.871094 12.554688 C 9.8125 12.503906 9.769531 12.480469 9.726563 12.480469 C 9.683594 12.480469 9.640625 12.503906 9.585938 12.558594 C 9.332031 12.808594 9.078125 13.058594 8.828125 13.3125 C 7.265625 14.875 5.703125 16.441406 4.136719 18.007813 C 4.113281 18.03125 4.085938 18.058594 4.054688 18.082031 C 4.003906 18.125 3.949219 18.148438 3.894531 18.148438 C 3.820313 18.148438 3.746094 18.109375 3.667969 18.03125 C 3.476563 17.84375 3.285156 17.652344 3.097656 17.460938 C 2.628906 16.996094 2.164063 16.527344 1.699219 16.0625 C 1.6875 16.050781 1.679688 16.046875 1.671875 16.035156 C 1.484375 15.84375 1.484375 15.730469 1.675781 15.535156 C 1.871094 15.339844 2.070313 15.148438 2.261719 14.953125 C 3.460938 13.753906 4.660156 12.554688 5.859375 11.355469 C 6.988281 10.230469 8.113281 9.101563 9.238281 7.976563 C 9.324219 7.890625 9.414063 7.804688 9.5 7.722656 C 9.574219 7.648438 9.65625 7.609375 9.738281 7.609375 C 9.8125 7.609375 9.882813 7.640625 9.953125 7.707031 C 10.140625 7.882813 10.320313 8.066406 10.503906 8.25 C 11.59375 9.339844 12.6875 10.433594 13.777344 11.523438 C 13.996094 11.738281 14.214844 11.953125 14.429688 12.171875 C 14.503906 12.25 14.558594 12.285156 14.613281 12.285156 C 14.664063 12.285156 14.71875 12.25 14.789063 12.179688 C 15.433594 11.53125 16.082031 10.890625 16.726563 10.246094 C 17.816406 9.152344 18.910156 8.0625 20 6.972656 C 20.558594 6.414063 21.117188 5.855469 21.675781 5.300781 C 21.785156 5.191406 21.785156 5.179688 21.671875 5.066406 C 21.121094 4.515625 20.574219 3.96875 20.027344 3.421875 C 19.992188 3.386719 19.960938 3.347656 19.929688 3.308594 C 19.828125 3.160156 19.882813 3.019531 20.0625 2.984375 C 20.289063 2.9375 20.519531 2.902344 20.746094 2.859375 C 20.992188 2.808594 21.234375 2.75 21.476563 2.699219 C 21.5625 2.679688 21.648438 2.671875 21.734375 2.65625 C 21.984375 2.613281 22.238281 2.574219 22.492188 2.523438 C 22.742188 2.476563 22.992188 2.414063 23.242188 2.359375 C 23.324219 2.34375 23.410156 2.332031 23.496094 2.316406 C 23.742188 2.277344 23.992188 2.238281 24.234375 2.191406 C 24.554688 2.128906 24.867188 2.054688 25.183594 1.992188 C 25.425781 1.941406 25.667969 1.90625 25.910156 1.863281 C 26.140625 1.824219 26.371094 1.796875 26.597656 1.75 C 26.792969 1.710938 26.984375 1.652344 27.183594 1.609375 C 27.34375 1.578125 27.503906 1.554688 27.652344 1.53125 L 27.664063 1.53125 M 27.664063 0 L 27.621094 0 L 27.507813 0.00390625 L 27.394531 0.0234375 C 27.355469 0.0273438 27.316406 0.0351563 27.277344 0.0429688 C 27.152344 0.0625 27.015625 0.0820313 26.863281 0.113281 C 26.742188 0.140625 26.632813 0.167969 26.535156 0.195313 C 26.449219 0.21875 26.363281 0.238281 26.300781 0.25 C 26.183594 0.273438 26.054688 0.292969 25.921875 0.3125 C 25.832031 0.328125 25.746094 0.339844 25.65625 0.355469 L 25.507813 0.382813 C 25.308594 0.414063 25.101563 0.449219 24.890625 0.488281 C 24.722656 0.523438 24.558594 0.558594 24.394531 0.59375 C 24.246094 0.628906 24.09375 0.660156 23.941406 0.691406 C 23.789063 0.71875 23.632813 0.746094 23.460938 0.773438 C 23.390625 0.785156 23.316406 0.796875 23.242188 0.808594 C 23.21875 0.8125 23.199219 0.816406 23.179688 0.820313 C 23.113281 0.828125 23.023438 0.84375 22.917969 0.863281 C 22.8125 0.886719 22.707031 0.910156 22.601563 0.933594 C 22.457031 0.96875 22.324219 1 22.195313 1.023438 C 22.035156 1.054688 21.871094 1.082031 21.695313 1.113281 C 21.621094 1.125 21.546875 1.136719 21.472656 1.148438 C 21.453125 1.152344 21.433594 1.15625 21.414063 1.160156 C 21.347656 1.167969 21.261719 1.183594 21.164063 1.203125 C 21.054688 1.226563 20.949219 1.25 20.84375 1.273438 C 20.710938 1.300781 20.578125 1.332031 20.445313 1.359375 C 20.351563 1.378906 20.257813 1.394531 20.164063 1.410156 C 20.03125 1.433594 19.898438 1.457031 19.753906 1.484375 C 19.164063 1.605469 18.683594 2 18.46875 2.535156 C 18.257813 3.074219 18.332031 3.691406 18.675781 4.183594 C 18.769531 4.320313 18.871094 4.425781 18.945313 4.5 L 19.628906 5.183594 C 19.390625 5.417969 19.15625 5.65625 18.917969 5.890625 L 15.644531 9.164063 C 15.425781 9.382813 15.203125 9.601563 14.984375 9.824219 C 14.859375 9.945313 14.734375 10.070313 14.609375 10.195313 L 13.363281 8.945313 L 11.476563 7.058594 C 11.328125 6.90625 11.167969 6.75 11 6.59375 C 10.648438 6.261719 10.199219 6.082031 9.738281 6.082031 C 9.257813 6.082031 8.792969 6.273438 8.433594 6.625 L 8.355469 6.703125 C 8.289063 6.765625 8.222656 6.832031 8.15625 6.894531 L 5.257813 9.796875 L 4.777344 10.273438 L 3.71875 11.335938 L 1.183594 13.871094 C 1.097656 13.957031 1.011719 14.039063 0.929688 14.121094 C 0.816406 14.234375 0.703125 14.34375 0.589844 14.457031 C -0.191406 15.246094 -0.199219 16.308594 0.574219 17.101563 C 0.601563 17.128906 0.625 17.152344 0.644531 17.171875 L 1.449219 17.976563 L 2.011719 18.542969 L 2.175781 18.703125 C 2.3125 18.84375 2.453125 18.984375 2.597656 19.125 C 3.0625 19.582031 3.558594 19.675781 3.894531 19.675781 C 4.3125 19.675781 4.707031 19.53125 5.039063 19.253906 C 5.101563 19.199219 5.164063 19.144531 5.21875 19.085938 L 7.410156 16.894531 L 9.726563 14.574219 L 9.804688 14.652344 L 11.238281 16.089844 C 11.90625 16.757813 12.578125 17.425781 13.246094 18.097656 C 13.65625 18.503906 14.113281 18.710938 14.605469 18.710938 C 15.101563 18.710938 15.558594 18.503906 15.964844 18.097656 C 16.164063 17.898438 16.363281 17.699219 16.558594 17.5 C 16.761719 17.296875 16.960938 17.097656 17.164063 16.894531 L 21.007813 13.054688 L 23.757813 10.300781 L 24.25 9.808594 L 24.65625 10.21875 L 24.734375 10.296875 C 24.820313 10.382813 24.917969 10.480469 25.023438 10.582031 C 25.367188 10.898438 25.800781 11.074219 26.25 11.074219 C 27.050781 11.074219 27.746094 10.511719 27.941406 9.710938 C 27.976563 9.566406 27.988281 9.445313 27.996094 9.375 L 27.996094 9.363281 C 28.015625 9.277344 28.039063 9.1875 28.058594 9.101563 C 28.089844 8.957031 28.125 8.808594 28.15625 8.648438 C 28.199219 8.4375 28.234375 8.234375 28.269531 8.035156 L 28.292969 7.898438 C 28.300781 7.835938 28.308594 7.769531 28.320313 7.707031 C 28.320313 7.691406 28.320313 7.675781 28.324219 7.664063 C 28.34375 7.574219 28.363281 7.484375 28.386719 7.398438 C 28.421875 7.253906 28.457031 7.105469 28.488281 6.945313 C 28.539063 6.699219 28.582031 6.460938 28.621094 6.226563 L 28.648438 6.074219 C 28.660156 5.992188 28.667969 5.925781 28.671875 5.871094 C 28.6875 5.800781 28.703125 5.730469 28.71875 5.660156 C 28.757813 5.507813 28.792969 5.351563 28.824219 5.199219 C 28.867188 4.980469 28.902344 4.765625 28.941406 4.5625 L 28.960938 4.433594 C 28.972656 4.367188 28.980469 4.300781 28.988281 4.234375 C 28.988281 4.222656 28.992188 4.210938 28.992188 4.203125 C 29.011719 4.113281 29.03125 4.027344 29.050781 3.941406 C 29.085938 3.789063 29.125 3.632813 29.15625 3.464844 C 29.21875 3.152344 29.277344 2.839844 29.332031 2.527344 C 29.359375 2.386719 29.386719 2.242188 29.414063 2.097656 C 29.550781 1.355469 29.25 0.855469 29.054688 0.625 C 28.863281 0.390625 28.425781 0 27.664063 0 "/>
</g>
<g clip-path="url(#clip2)" clip-rule="nonzero">
<path style=" stroke:none;fill-rule:nonzero;fill:rgb(0%,21.998596%,38.798523%);fill-opacity:1;" d="M 27.375 19.519531 L 27.375 24.664063 C 27.375 24.707031 27.378906 24.753906 27.371094 24.800781 C 27.351563 24.890625 27.300781 24.953125 27.199219 24.957031 C 27.152344 24.957031 27.105469 24.957031 27.0625 24.957031 L 23.957031 24.957031 C 23.914063 24.957031 23.867188 24.957031 23.820313 24.957031 C 23.726563 24.960938 23.675781 24.90625 23.660156 24.820313 C 23.652344 24.765625 23.648438 24.714844 23.648438 24.664063 C 23.648438 22.582031 23.648438 20.5 23.648438 18.417969 C 23.648438 18.40625 23.644531 18.390625 23.648438 18.378906 C 23.652344 18.34375 23.660156 18.304688 23.667969 18.269531 C 23.699219 18.289063 23.730469 18.304688 23.761719 18.324219 C 23.777344 18.332031 23.792969 18.34375 23.808594 18.351563 C 23.804688 18.332031 23.808594 18.300781 23.792969 18.289063 C 23.671875 18.152344 23.644531 17.996094 23.644531 17.816406 C 23.648438 16.460938 23.648438 15.105469 23.644531 13.75 C 23.644531 13.589844 23.679688 13.46875 23.800781 13.351563 C 24.191406 12.976563 24.570313 12.589844 24.957031 12.207031 C 25.113281 12.046875 25.230469 12.046875 25.390625 12.207031 C 25.84375 12.660156 26.292969 13.113281 26.746094 13.566406 C 26.898438 13.71875 27.046875 13.875 27.207031 14.019531 C 27.324219 14.128906 27.378906 14.246094 27.378906 14.414063 C 27.375 16.117188 27.375 17.816406 27.375 19.519531 "/>
</g>
<g clip-path="url(#clip3)" clip-rule="nonzero">
<path style=" stroke:none;fill-rule:nonzero;fill:rgb(0%,21.998596%,38.798523%);fill-opacity:1;" d="M 22.34375 24.507813 C 22.34375 24.5625 22.347656 24.613281 22.34375 24.667969 C 22.339844 24.929688 22.3125 24.957031 22.046875 24.957031 C 21.007813 24.957031 19.96875 24.957031 18.929688 24.957031 C 18.882813 24.957031 18.835938 24.957031 18.789063 24.957031 C 18.6875 24.953125 18.636719 24.890625 18.621094 24.796875 C 18.613281 24.738281 18.617188 24.679688 18.617188 24.621094 C 18.617188 22.664063 18.617188 20.707031 18.613281 18.753906 C 18.613281 18.601563 18.660156 18.496094 18.761719 18.390625 C 19.859375 17.300781 20.953125 16.207031 22.042969 15.113281 C 22.078125 15.078125 22.113281 15.050781 22.144531 15.019531 C 22.222656 14.917969 22.324219 14.984375 22.335938 15.082031 C 22.34375 15.136719 22.34375 15.1875 22.34375 15.242188 Z M 19.8125 21.054688 L 19.816406 21.066406 L 19.820313 21.054688 "/>
</g>
<g clip-path="url(#clip4)" clip-rule="nonzero">
<path style=" stroke:none;fill-rule:nonzero;fill:rgb(0%,21.998596%,38.798523%);fill-opacity:1;" d="M 8.558594 21.539063 C 8.558594 20.515625 8.5625 19.484375 8.558594 18.457031 C 8.558594 18.304688 8.597656 18.1875 8.710938 18.078125 C 8.992188 17.8125 9.257813 17.535156 9.53125 17.265625 C 9.675781 17.121094 9.796875 17.117188 9.9375 17.257813 C 10.683594 18 11.425781 18.742188 12.171875 19.484375 C 12.257813 19.574219 12.292969 19.671875 12.292969 19.800781 C 12.289063 21.425781 12.292969 23.046875 12.292969 24.667969 C 12.292969 24.707031 12.292969 24.75 12.289063 24.785156 C 12.273438 24.894531 12.21875 24.949219 12.109375 24.953125 C 11.984375 24.960938 11.859375 24.957031 11.734375 24.957031 L 8.90625 24.957031 C 8.855469 24.957031 8.804688 24.957031 8.75 24.957031 C 8.617188 24.949219 8.578125 24.910156 8.5625 24.777344 C 8.554688 24.722656 8.558594 24.660156 8.558594 24.601563 L 8.558594 21.539063 "/>
</g>
<g clip-path="url(#clip5)" clip-rule="nonzero">
<path style=" stroke:none;fill-rule:nonzero;fill:rgb(0%,21.998596%,38.798523%);fill-opacity:1;" d="M 17.292969 22.460938 L 17.292969 24.660156 C 17.292969 24.710938 17.292969 24.765625 17.289063 24.816406 C 17.285156 24.898438 17.238281 24.949219 17.15625 24.953125 C 17.101563 24.957031 17.050781 24.957031 17 24.957031 L 13.855469 24.957031 C 13.632813 24.953125 13.617188 24.9375 13.617188 24.703125 L 13.617188 21.308594 C 13.617188 21.273438 13.613281 21.242188 13.621094 21.210938 C 13.628906 21.160156 13.648438 21.117188 13.664063 21.070313 C 13.714844 21.089844 13.777344 21.097656 13.816406 21.136719 C 14.132813 21.445313 14.445313 21.761719 14.757813 22.074219 C 14.765625 22.078125 14.769531 22.085938 14.773438 22.089844 C 14.945313 22.25 14.902344 22.257813 15.070313 22.089844 C 15.722656 21.441406 16.371094 20.789063 17.023438 20.140625 C 17.085938 20.082031 17.132813 19.960938 17.238281 20.011719 C 17.339844 20.058594 17.289063 20.175781 17.289063 20.261719 C 17.292969 20.992188 17.292969 21.726563 17.292969 22.460938 "/>
</g>
<g clip-path="url(#clip6)" clip-rule="nonzero">
<path style=" stroke:none;fill-rule:nonzero;fill:rgb(0%,21.998596%,38.798523%);fill-opacity:1;" d="M 7.261719 22.3125 L 7.261719 24.589844 C 7.261719 24.648438 7.265625 24.710938 7.257813 24.765625 C 7.238281 24.921875 7.203125 24.957031 7.042969 24.957031 C 5.949219 24.957031 4.859375 24.957031 3.765625 24.957031 C 3.582031 24.957031 3.535156 24.902344 3.53125 24.71875 C 3.53125 24.277344 3.535156 23.832031 3.53125 23.386719 C 3.53125 23.292969 3.574219 23.226563 3.632813 23.164063 C 3.996094 22.796875 4.359375 22.433594 4.722656 22.066406 C 5.070313 21.722656 5.417969 21.378906 5.761719 21.03125 C 6.167969 20.628906 6.574219 20.21875 6.980469 19.8125 C 7.011719 19.78125 7.042969 19.746094 7.078125 19.71875 C 7.152344 19.664063 7.21875 19.675781 7.242188 19.765625 C 7.261719 19.835938 7.261719 19.910156 7.261719 19.980469 C 7.261719 20.757813 7.261719 21.539063 7.261719 22.3125 "/>
</g>
</g>
</svg>
