
<svg width="205px" height="39px" viewBox="0 0 205 39" version="1.1" xmlns="http://www.w3.org/2000/svg" xmlns:xlink="http://www.w3.org/1999/xlink">
    <g id="Page-1" stroke="none" stroke-width="1" fill="none" fill-rule="evenodd">
        <g id="Tablet" transform="translate(-267.000000, -314.000000)">
            <g id="Group" transform="translate(267.000000, 314.000000)">
                <path d="M41.2779361,38.8421572 L41.2779361,37.6129563 L38.4820208,37.6129563 L38.4820208,33.165735 L37,33.165735 L37,38.8421572 L41.2779361,38.8421572 Z M47.5713804,38.8421572 L47.5713804,37.6820125 L44.568193,37.6820125 L44.568193,36.4681026 L47.226596,36.4681026 L47.226596,35.3316343 L44.568193,35.3316343 L44.568193,34.3298257 L47.4775308,34.3298257 L47.4775308,33.165735 L43.0901871,33.165735 L43.0901871,38.8421572 L47.5713804,38.8421572 Z M51.924597,34.6686945 L52.5674919,36.6264387 L51.3047881,36.6264387 L51.924597,34.6686945 Z M49.0895358,38.8421572 L50.6227473,38.8421572 L50.9519738,37.8018744 L52.8811604,37.8018744 L53.2339747,38.8421572 L54.8218899,38.8421572 L52.7832958,33.165735 L51.1677777,33.165735 L49.0895358,38.8421572 Z M58.0810309,34.3682999 L58.8850259,34.3682999 C59.3422291,34.3682999 59.6774779,34.5 59.8902706,34.7629069 C60.1035652,35.0263071 60.2099615,35.4421243 60.2099615,36.0098652 C60.2099615,36.5751398 60.1035652,36.9899704 59.8902706,37.2543571 C59.6774779,37.5192371 59.3422291,37.6514305 58.8850259,37.6514305 L58.0810309,37.6514305 L58.0810309,34.3682999 Z M58.8689661,38.8421572 C59.8205108,38.8421572 60.5321618,38.6068727 61.0039192,38.1367971 C61.4756766,37.6667215 61.7115553,36.9579086 61.7115553,36.0098652 C61.7115553,35.0924038 61.4837065,34.38951 61.027507,33.899704 C60.5713076,33.4103913 59.915866,33.165735 59.0611821,33.165735 L56.5949951,33.165735 L56.5949951,38.8421572 L58.8689661,38.8421572 Z M63.8495196,38.8421572 L65.3235105,38.8421572 L65.3235105,33.165735 L63.8495196,33.165735 L63.8495196,38.8421572 Z M69.1236668,38.8421572 L69.1236668,37.1310424 C69.1236668,36.884413 69.1171425,36.6017757 69.1040939,36.2831305 C69.0910453,35.9649786 69.0699667,35.620684 69.0413602,35.2507399 C69.2165127,35.576784 69.3826315,35.8806314 69.5392148,36.1617889 C69.6963,36.4434397 69.8413403,36.6969747 69.9743357,36.9228872 L71.1075572,38.8421572 L72.7035024,38.8421572 L72.7035024,33.165735 L71.2761853,33.165735 L71.2761853,34.6183821 C71.2761853,34.903979 71.2817059,35.2339691 71.2917433,35.6088458 C71.3022825,35.9842157 71.3178405,36.3862216 71.338919,36.8153568 C71.1978937,36.5248274 71.0473328,36.2308451 70.8882402,35.9329168 C70.7286456,35.6344952 70.5600175,35.3341006 70.3823556,35.0307465 L69.292295,33.165735 L67.6928367,33.165735 L67.6928367,38.8421572 L69.1236668,38.8421572 Z M80.3183692,38.8421572 L80.3183692,35.7479448 L77.7151718,35.7479448 L77.7151718,36.8380467 L79.0009616,36.8380467 C78.9462578,37.1463334 78.8057343,37.3870437 78.579893,37.5586978 C78.3535499,37.7308451 78.0679861,37.8171654 77.7232017,37.8171654 C77.2915939,37.8171654 76.9473114,37.65439 76.6898523,37.3298257 C76.4323932,37.0047682 76.3034127,36.5672476 76.3034127,36.0172641 C76.3034127,35.4598816 76.4344007,35.0115094 76.6958747,34.6726406 C76.9568469,34.3332785 77.2996238,34.1640908 77.7232017,34.1640908 C78.002743,34.1640908 78.2391236,34.2262414 78.4328453,34.3505426 C78.626065,34.4753371 78.7695997,34.6598159 78.8639512,34.903979 L80.2792234,34.903979 C80.1617859,34.3026965 79.8827464,33.8350871 79.4421049,33.5011509 C79.0019653,33.1672147 78.4428826,33 77.7658606,33 C76.8695216,33 76.1513462,33.280171 75.6113346,33.8400197 C75.0718248,34.4003617 74.801819,35.144196 74.801819,36.0715225 C74.801819,36.5006577 74.867062,36.8962512 74.99805,37.2583032 C75.1285361,37.6203551 75.3207521,37.9350543 75.5741962,38.2024005 C75.817603,38.4618547 76.0976462,38.6586649 76.4153296,38.7918448 C76.7330131,38.9255179 77.0788012,38.9926011 77.4521921,38.9926011 C77.8521822,38.9926011 78.2019853,38.9195988 78.5010995,38.7745807 C78.8007156,38.6295626 79.0586766,38.4080894 79.2754842,38.1101611 L79.3934236,38.8421572 L80.3183692,38.8421572 Z M88.8049834,38.8421572 L88.8049834,34.3179875 L90.4596474,34.3179875 L90.4596474,33.165735 L85.6723137,33.165735 L85.6723137,34.3179875 L87.3264757,34.3179875 L87.3264757,38.8421572 L88.8049834,38.8421572 Z M93.9360978,34.6800395 C94.1754896,34.3717527 94.5182665,34.217856 94.9654323,34.217856 C95.4151074,34.217856 95.7603937,34.3727392 96.0022948,34.6820125 C96.2441959,34.991779 96.3651465,35.4342322 96.3651465,36.0098652 C96.3651465,36.5879645 96.2441959,37.0309109 96.0022948,37.3391976 C95.7603937,37.6474844 95.4151074,37.8018744 94.9654323,37.8018744 C94.5182665,37.8018744 94.1754896,37.6474844 93.9360978,37.3391976 C93.6967061,37.0309109 93.5772611,36.5879645 93.5772611,36.0098652 C93.5772611,35.4317659 93.6967061,34.9883262 93.9360978,34.6800395 Z M92.8540671,38.1964814 C93.3730002,38.7321605 94.0766213,39 94.9654323,39 C95.8567526,39 96.5643887,38.7316672 97.0883405,38.1945084 C97.6122924,37.6578428 97.8747701,36.9292996 97.8747701,36.0098652 C97.8747701,35.0899375 97.6122924,34.3618875 97.0883405,33.8247287 C96.5643887,33.2880631 95.8567526,33.0192371 94.9654323,33.0192371 C94.0766213,33.0192371 93.3730002,33.2870766 92.8540671,33.8227557 C92.3351339,34.3584347 92.0756674,35.0874712 92.0756674,36.0098652 C92.0756674,36.9322591 92.3351339,37.6608024 92.8540671,38.1964814 Z M108.023075,38.8421572 L108.023075,37.6820125 L105.019887,37.6820125 L105.019887,36.4681026 L107.67829,36.4681026 L107.67829,35.3316343 L105.019887,35.3316343 L105.019887,34.3298257 L107.929225,34.3298257 L107.929225,33.165735 L103.541881,33.165735 L103.541881,38.8421572 L108.023075,38.8421572 Z M111.180336,38.8421572 L112.160487,37.1926998 L113.129095,38.8421572 L114.834448,38.8421572 L112.952437,35.9289707 L114.728554,33.165735 L113.042774,33.165735 L112.160487,34.6839855 L111.274687,33.165735 L109.588406,33.165735 L111.348964,35.9289707 L109.486526,38.8421572 L111.180336,38.8421572 Z M120.159786,36.853831 C120.110101,37.1566919 119.985637,37.3880303 119.785391,37.5473528 C119.585647,37.7066754 119.319656,37.7860901 118.987419,37.7860901 C118.57438,37.7860901 118.254187,37.6326866 118.02684,37.3258796 C117.799494,37.0185794 117.686071,36.5879645 117.686071,36.0330483 C117.686071,35.4756659 117.806018,35.0361723 118.046413,34.7150608 C118.286809,34.3939494 118.613526,34.233147 119.026565,34.233147 C119.335214,34.233147 119.584142,34.3022032 119.773848,34.4393292 C119.963053,34.5769484 120.092034,34.7816508 120.159786,35.0539296 L121.547957,35.0539296 C121.485224,34.427491 121.232281,33.9327524 120.789131,33.5702072 C120.34598,33.2081552 119.77435,33.0271292 119.07374,33.0271292 C118.19045,33.0271292 117.485323,33.3008879 116.95836,33.8479119 C116.431899,34.3949359 116.168417,35.1284117 116.168417,36.0483394 C116.168417,36.9322591 116.427382,37.6450181 116.94481,38.1871095 C117.462237,38.7292009 118.143274,39 118.987419,39 C119.693549,39 120.269194,38.8125617 120.714854,38.437685 C121.160514,38.062315 121.433029,37.5345281 121.532399,36.853831 L120.159786,36.853831 Z M128.076778,38.8421572 L128.076778,37.6820125 L125.073591,37.6820125 L125.073591,36.4681026 L127.731994,36.4681026 L127.731994,35.3316343 L125.073591,35.3316343 L125.073591,34.3298257 L127.982929,34.3298257 L127.982929,33.165735 L123.595585,33.165735 L123.595585,38.8421572 L128.076778,38.8421572 Z M134.476619,38.8421572 L134.476619,37.6129563 L131.681206,37.6129563 L131.681206,33.165735 L130.198683,33.165735 L130.198683,38.8421572 L134.476619,38.8421572 Z M140.601937,38.8421572 L140.601937,37.6129563 L137.806022,37.6129563 L137.806022,33.165735 L136.324001,33.165735 L136.324001,38.8421572 L140.601937,38.8421572 Z M146.895381,38.8421572 L146.895381,37.6820125 L143.892194,37.6820125 L143.892194,36.4681026 L146.550597,36.4681026 L146.550597,35.3316343 L143.892194,35.3316343 L143.892194,34.3298257 L146.801532,34.3298257 L146.801532,33.165735 L142.414188,33.165735 L142.414188,38.8421572 L146.895381,38.8421572 Z M150.405457,38.8421572 L150.405457,37.1310424 C150.405457,36.884413 150.398933,36.6017757 150.385884,36.2831305 C150.372835,35.9649786 150.351757,35.620684 150.32315,35.2507399 C150.498303,35.576784 150.664422,35.8806314 150.821005,36.1617889 C150.97809,36.4434397 151.12313,36.6969747 151.256126,36.9228872 L152.389347,38.8421572 L153.985293,38.8421572 L153.985293,33.165735 L152.557976,33.165735 L152.557976,34.6183821 C152.557976,34.903979 152.562994,35.2339691 152.573533,35.6088458 C152.584073,35.9842157 152.599631,36.3862216 152.620709,36.8153568 C152.479684,36.5248274 152.329123,36.2308451 152.17003,35.9329168 C152.010436,35.6344952 151.841808,35.3341006 151.664146,35.0307465 L150.574085,33.165735 L148.974125,33.165735 L148.974125,38.8421572 L150.405457,38.8421572 Z M160.083008,36.853831 C160.033323,37.1566919 159.908357,37.3880303 159.708613,37.5473528 C159.508367,37.7066754 159.242376,37.7860901 158.91064,37.7860901 C158.497602,37.7860901 158.177409,37.6326866 157.950062,37.3258796 C157.722715,37.0185794 157.608791,36.5879645 157.608791,36.0330483 C157.608791,35.4756659 157.729239,35.0361723 157.969635,34.7150608 C158.21003,34.3939494 158.536748,34.233147 158.949786,34.233147 C159.257934,34.233147 159.507363,34.3022032 159.696568,34.4393292 C159.886275,34.5769484 160.014753,34.7816508 160.083008,35.0539296 L161.470677,35.0539296 C161.407943,34.427491 161.155001,33.9327524 160.712352,33.5702072 C160.269201,33.2081552 159.69707,33.0271292 158.996962,33.0271292 C158.11317,33.0271292 157.408043,33.3008879 156.881582,33.8479119 C156.354619,34.3949359 156.091639,35.1284117 156.091639,36.0483394 C156.091639,36.9322591 156.350102,37.6450181 156.868031,38.1871095 C157.385459,38.7292009 158.065994,39 158.91064,39 C159.616269,39 160.191913,38.8125617 160.637574,38.437685 C161.083234,38.062315 161.355749,37.5345281 161.455119,36.853831 L160.083008,36.853831 Z M168,38.8421572 L168,37.6820125 L164.996311,37.6820125 L164.996311,36.4681026 L167.654714,36.4681026 L167.654714,35.3316343 L164.996311,35.3316343 L164.996311,34.3298257 L167.905649,34.3298257 L167.905649,33.165735 L163.518305,33.165735 L163.518305,38.8421572 L168,38.8421572 L168,38.8421572 Z" id="Fill-1" fill="#9D9D9C"></path>
                <path d="M91.3524737,7.96751287 C91.3524737,9.87098525 91.9301068,12.0646485 94.2083552,12.0646485 C96.5506747,12.0646485 96.8074556,9.80655389 96.8074556,7.93554692 C96.8074556,6.0965059 95.9089705,4.64505201 94.0479291,4.64505201 C92.2509589,4.64505201 91.3524737,6.19340268 91.3524737,7.96751287 Z M103,0.419053617 L103,15.0000217 C103,18.322982 102.133799,23 94.3364973,23 C90.3899175,23 86.2193372,21.9356338 85.6417041,17.4194445 L91.9301068,17.4194445 C91.9941779,17.5807727 92.1551006,17.8065322 92.2832427,17.9998263 C92.6681659,18.5807075 93.3421539,19.2260201 94.1442841,19.2260201 C96.1980354,19.2260201 96.6470296,16.7741319 96.6470296,15.3871094 L96.5829585,13.8387587 C95.5558346,15.322678 94.0161419,16.1612847 92.1228167,16.1612847 C87.2136806,16.1612847 85,12.4837021 85,7.99997828 C85,3.64511716 87.4704616,0 92.2191717,0 C94.080213,0 95.8448994,0.741709918 96.6470296,2.45138874 L96.6470296,0.419053617 L103,0.419053617 L103,0.419053617 Z" id="Fill-2" fill="#003964"></path>
                <path d="M77.1334676,11.460496 L77.1334676,9.87522373 C76.3636213,10.2715418 75.49742,10.5026847 74.6307221,10.7010995 C73.2191717,11.0309384 72.4811126,11.3940169 72.4811126,12.5502429 C72.4811126,13.3428791 73.3155266,14.1355152 74.4707927,14.1355152 C75.9146271,14.1355152 77.0376093,13.2441831 77.1334676,11.460496 Z M83.2301537,6.70467911 L83.2301537,13.7397085 C83.2301537,15.0273587 83.2942248,16.4801841 84,17.5704423 L77.5188874,17.5704423 C77.3584614,17.1081565 77.2621065,16.4147277 77.2303193,15.9524418 C75.8823432,17.5377141 73.9249469,18 71.8716923,18 C68.6631715,18 66,16.4147277 66,12.8146254 C66,7.3981079 72.1602605,7.59601125 75.4010651,6.96855024 C76.267763,6.8033751 77.1334676,6.53950396 77.1334676,5.44924572 C77.1334676,4.29353107 76.0750531,3.86397341 75.0479291,3.86397341 C73.0910295,3.86397341 72.7061063,4.88775249 72.6738225,5.61442086 L66.7698463,5.61442086 C66.9625562,0.792124776 71.3904142,0 75.336994,0 C83.2942248,0 83.2301537,3.40168755 83.2301537,6.70467911 L83.2301537,6.70467911 Z" id="Fill-3" fill="#003964"></path>
                <path d="M25.0104467,7.06775761 L30.9895533,7.06775761 C30.9895533,5.4824853 29.8505359,4.1943237 28.2370096,4.1943237 C26.3708036,4.1943237 25.2949562,5.21810279 25.0104467,7.06775761 Z M37,10.4694452 L24.9791066,10.4694452 C25.1372762,12.4183073 26.212634,13.8051649 28.1743294,13.8051649 C29.1860275,13.8051649 30.2937048,13.4088468 30.7995538,12.5829711 L36.6518309,12.5829711 C35.3864737,16.2822807 31.9385712,18 28.2056695,18 C22.9542413,18 19,14.7629762 19,9.04934799 C19,4.06238814 22.4797323,0 27.667501,0 C34.1842864,0 37,3.79800563 37,10.4694452 L37,10.4694452 Z" id="Fill-4" fill="#003964"></path>
                <path d="M6.10673632,8.97024929 C6.10673632,10.9742087 6.61847677,13.1760711 8.88814957,13.1760711 C11.1583173,13.1760711 11.6695628,10.9742087 11.6695628,8.97024929 C11.6695628,6.93271251 11.1583173,4.7313588 8.88814957,4.7313588 C6.61847677,4.7313588 6.10673632,6.93271251 6.10673632,8.97024929 Z M0,0.426839789 L6.10673632,0.426839789 L6.17058015,2.30005087 C6.96986527,1.21590834 7.92900742,0 11.0301347,0 C15.7298323,0 18,4.76442744 18,9.03587781 C18,13.0443053 16.4974429,17.9074299 10.9346164,17.9074299 C9.0480066,17.9074299 7.35342315,17.0527329 6.33043717,15.6073791 C5.64844652,14.6438099 5.64844652,17.1080168 6.33043717,23 L0,23 L0,0.426839789 Z" id="Fill-5" fill="#003964"></path>
                <polyline id="Fill-6" fill="#003964" points="66 0 59.264712 0 56.9108028 10.5144391 56.7802269 10.5144391 54.5239965 0 48.4754974 0 46.317452 10.5144391 43.7347818 0 37 0 42.2959162 17 48.9330192 17 51.4509075 6.55098449 53.9682897 17 60.6053927 17 66 0"></polyline>
                <path d="M193.106736,8.97024929 C193.106736,10.9742087 193.617982,13.1760711 195.88815,13.1760711 C198.158317,13.1760711 198.669563,10.9742087 198.669563,8.97024929 C198.669563,6.93322126 198.158317,4.7313588 195.88815,4.7313588 C193.617982,4.7313588 193.106736,6.93322126 193.106736,8.97024929 Z M187,23 L187,0.426839789 L193.106736,0.426839789 L193.17058,2.30005087 C193.96937,1.21590834 194.929007,0 198.030135,0 C202.729832,0 205,4.76442744 205,9.03587781 C205,13.0443053 203.497443,17.9074299 197.934616,17.9074299 C196.048007,17.9074299 194.353423,17.0527329 193.330437,15.6073791 L193.330437,23 L187,23 L187,23 Z" id="Fill-7" fill="#003964"></path>
                <path d="M140.711448,17 L140.711448,10.2059328 C140.711448,8.9264214 141.028148,7.98705831 141.662554,7.38784354 C142.296457,6.78862876 143.28872,6.48902138 144.639341,6.48902138 C144.845121,6.48902138 145.061943,6.4969318 145.288803,6.51225825 C145.515162,6.5270903 145.752562,6.54488876 146,6.56515923 L146,0 L145.396713,0 C144.015475,0 142.909783,0.276864912 142.080137,0.830100334 C141.24999,1.38383016 140.613075,2.25990984 140.169894,3.45784499 L140.169894,0.441995056 L134,0.441995056 L134,17 L140.711448,17" id="Fill-8" fill="#003964"></path>
                <path d="M155.507679,0 C158.465646,0 160.787277,0.800716296 162.472059,2.40214889 C164.157353,4.00409312 165,6.19544641 165,8.97672039 C165,11.77846 164.154793,13.9826042 162.46438,15.5896649 C160.773967,17.1962139 158.454896,18 155.507679,18 C152.55995,18 150.23832,17.1962139 148.543299,15.5896649 C146.847766,13.9826042 146,11.77846 146,8.97672039 C146,6.19544641 146.845207,4.00409312 148.53562,2.40214889 C150.225521,0.800716296 152.549712,0 155.507679,0 Z M155.507679,4.65029419 C154.528345,4.65029419 153.824945,4.98541827 153.397478,5.65464313 C152.969499,6.32437964 152.756022,7.43156818 152.756022,8.97672039 C152.756022,10.5321054 152.969499,11.6495267 153.397478,12.329496 C153.824945,13.0094653 154.528345,13.3491942 155.507679,13.3491942 C156.486501,13.3491942 157.195021,13.0069071 157.633238,12.3218214 C158.071456,11.6367357 158.290564,10.5218726 158.290564,8.97672039 C158.290564,7.44180097 158.071456,6.33717063 157.633238,5.66231773 C157.195021,4.98797646 156.486501,4.65029419 155.507679,4.65029419 Z" id="Combined-Shape" fill="#003964"></path>
                <path d="M178.37078,1 L178.37078,9.5153269 C178.37078,10.6425954 178.163586,11.4855747 177.749198,12.0437704 C177.334809,12.6024604 176.713724,12.8818055 175.884947,12.8818055 C175.05617,12.8818055 174.472939,12.6405305 174.135252,12.1579805 C173.798063,11.6759248 173.62922,10.8047638 173.62922,9.54548627 L173.62922,1 L167,1 L167,9.57614007 C167,11.5770416 167.102103,13.0009597 167.306807,13.8488832 C167.511013,14.6973011 167.859159,15.4156875 168.350249,16.004537 C168.902601,16.6645824 169.577975,17.1624593 170.375872,17.4971789 C171.173769,17.832393 172.079247,18 173.09181,18 C174.299115,18 175.380908,17.7641636 176.337687,17.2915019 C177.293968,16.8193346 178.161096,16.096004 178.938572,15.1210156 L178.938572,17.5584865 L185,17.5584865 L185,1 L178.37078,1" id="Fill-13" fill="#003964"></path>
                <path d="M119.35297,7.96751287 C119.35297,9.87098525 119.930603,12.0646485 122.208852,12.0646485 C124.550675,12.0646485 124.807456,9.80655389 124.807456,7.93554692 C124.807456,6.0965059 123.908971,4.64505201 122.047929,4.64505201 C120.251456,4.64505201 119.35297,6.19340268 119.35297,7.96751287 Z M131,0.419053617 L131,15.0000217 C131,18.322982 130.133799,23 122.336497,23 C118.390414,23 114.219337,21.9356338 113.641704,17.4194445 L119.930603,17.4194445 C119.994675,17.5807727 120.155101,17.8065322 120.283243,17.9998263 C120.668166,18.5807075 121.342154,19.2260201 122.144284,19.2260201 C124.198035,19.2260201 124.64703,16.7741319 124.64703,15.3871094 L124.582959,13.8387587 C123.555835,15.322678 122.016142,16.1612847 120.122817,16.1612847 C115.213681,16.1612847 113,12.4837021 113,7.99997828 C113,3.64511716 115.470462,0 120.219172,0 C122.080213,0 123.844899,0.741709918 124.64703,2.45138874 L124.64703,0.419053617 L131,0.419053617 L131,0.419053617 Z" id="Fill-14" fill="#003964"></path>
            </g>
        </g>
    </g>
</svg>