
<svg width="224px" height="42px" viewBox="0 0 224 42" version="1.1" xmlns="http://www.w3.org/2000/svg" xmlns:xlink="http://www.w3.org/1999/xlink">
    <defs>
        <polygon id="path-mkhz1pc1_o-1" points="0 0 142 0 142 6 0 6"></polygon>
        <polygon id="path-mkhz1pc1_o-3" points="0 0 41 0 41 24 0 24"></polygon>
    </defs>
    <g id="Page-1" stroke="none" stroke-width="1" fill="none" fill-rule="evenodd">
        <g id="Tablet" transform="translate(-160.000000, -299.000000)">
            <g id="Group" transform="translate(160.000000, 299.241877)">
                <g id="Group-3" transform="translate(41.000000, 35.000000)">
                    <mask id="mask-mkhz1pc1_o-2" fill="white">
                        <use xlink:href="#path-mkhz1pc1_o-1"></use>
                    </mask>
                    <g id="Clip-2"></g>
                    <path d="M142,5.87147858 L142,4.70528421 L138.743677,4.70528421 L138.743677,3.48558093 L141.625393,3.48558093 L141.625393,2.34339057 L138.743677,2.34339057 L138.743677,1.33672279 L141.897593,1.33672279 L141.897593,0.166527755 L137.14178,0.166527755 L137.14178,5.87147858 L142,5.87147858 Z M133.417993,3.87314552 C133.364402,4.17769628 133.228567,4.41023504 133.012081,4.57026171 C132.795063,4.73028838 132.506945,4.81030172 132.147194,4.81030172 C131.699364,4.81030172 131.352348,4.65577596 131.106147,4.34772462 C130.859416,4.03867311 130.736315,3.60610102 130.736315,3.048008 C130.736315,2.48791465 130.866844,2.04634106 131.127371,1.7237873 C131.387898,1.40123354 131.741812,1.23920653 132.189643,1.23920653 C132.523924,1.23920653 132.794002,1.30871812 132.999346,1.44674112 C133.20469,1.58476413 133.344239,1.79079847 133.417993,2.06434406 L134.922259,2.06434406 C134.854341,1.43473912 134.580019,0.937656276 134.100352,0.573095516 C133.619623,0.209534922 132.999877,0.0275045841 132.240581,0.0275045841 C131.282839,0.0275045841 130.518237,0.302550425 129.947836,0.852142024 C129.376375,1.40223371 129.09144,2.13935656 129.09144,3.06351059 C129.09144,3.95215869 129.371599,4.66827805 129.932979,5.21286881 C130.493829,5.75795966 131.231901,6.030005 132.147194,6.030005 C132.912327,6.030005 133.536318,5.84147358 134.019169,5.46491082 C134.50202,5.08784797 134.797567,4.55725954 134.90528,3.87314552 L133.417993,3.87314552 Z M122.927931,5.87147858 L122.927931,4.15169195 C122.927931,3.90415069 122.921033,3.62010335 122.906707,3.29954992 C122.892381,2.97999667 122.869565,2.63393899 122.838789,2.26187698 C123.028746,2.58993166 123.208621,2.8949825 123.378415,3.17752959 C123.548739,3.46057676 123.705798,3.71561927 123.850123,3.94265711 L125.078474,5.87147858 L126.808246,5.87147858 L126.808246,0.166527755 L125.261002,0.166527755 L125.261002,1.62677113 C125.261002,1.91381897 125.266838,2.24537423 125.277981,2.62193699 C125.289654,2.99899983 125.306103,3.40306718 125.328919,3.83463911 C125.176105,3.54259043 125.013209,3.24704117 124.840762,2.94749125 C124.667785,2.64794132 124.484726,2.34589098 124.292117,2.04084014 L123.110459,0.166527755 L121.376442,0.166527755 L121.376442,5.87147858 L122.927931,5.87147858 Z M119.122962,5.87147858 L119.122962,4.70528421 L115.8677,4.70528421 L115.8677,3.48558093 L118.749416,3.48558093 L118.749416,2.34339057 L115.8677,2.34339057 L115.8677,1.33672279 L119.021617,1.33672279 L119.021617,0.166527755 L114.265803,0.166527755 L114.265803,5.87147858 L119.122962,5.87147858 Z M112.300973,5.87147858 L112.300973,4.63627271 L109.270687,4.63627271 L109.270687,0.166527755 L107.664015,0.166527755 L107.664015,5.87147858 L112.300973,5.87147858 Z M105.661511,5.87147858 L105.661511,4.63627271 L102.631226,4.63627271 L102.631226,0.166527755 L101.024554,0.166527755 L101.024554,5.87147858 L105.661511,5.87147858 Z M98.7243806,5.87147858 L98.7243806,4.70528421 L95.4691184,4.70528421 L95.4691184,3.48558093 L98.350304,3.48558093 L98.350304,2.34339057 L95.4691184,2.34339057 L95.4691184,1.33672279 L98.6225044,1.33672279 L98.6225044,0.166527755 L93.8666911,0.166527755 L93.8666911,5.87147858 L98.7243806,5.87147858 Z M90.142374,3.87314552 C90.0887829,4.17769628 89.9540092,4.41023504 89.7364612,4.57026171 C89.5199743,4.73028838 89.2318557,4.81030172 88.8715749,4.81030172 C88.4237442,4.81030172 88.0767285,4.65577596 87.8305277,4.34772462 C87.5837964,4.03867311 87.4612266,3.60610102 87.4612266,3.048008 C87.4612266,2.48791465 87.5912248,2.04634106 87.8517519,1.7237873 C88.112279,1.40123354 88.4661926,1.23920653 88.9140233,1.23920653 C89.2488351,1.23920653 89.5183825,1.30871812 89.7242572,1.44674112 C89.9290708,1.58476413 90.0691505,1.79079847 90.142374,2.06434406 L91.64717,2.06434406 C91.5792526,1.43473912 91.3049298,0.937656276 90.8247322,0.573095516 C90.3445346,0.209534922 89.7247879,0.0275045841 88.965492,0.0275045841 C88.0077498,0.0275045841 87.2436785,0.302550425 86.6722168,0.852142024 C86.1018164,1.40223371 85.8158203,2.13935656 85.8158203,3.06351059 C85.8158203,3.95215869 86.0965103,4.66827805 86.6573599,5.21286881 C87.2182095,5.75795966 87.9568117,6.030005 88.8715749,6.030005 C89.637238,6.030005 90.2612296,5.84147358 90.7440802,5.46491082 C91.2274614,5.08784797 91.5224779,4.55725954 91.6301907,3.87314552 L90.142374,3.87314552 Z M80.4089545,5.87147858 L81.4717565,4.21370228 L82.5212933,5.87147858 L84.3699214,5.87147858 L82.3297449,2.94349058 L84.2553107,0.166527755 L82.4279068,0.166527755 L81.4717565,1.69278213 L80.5113613,0.166527755 L78.6834268,0.166527755 L80.5920133,2.94349058 L78.573061,5.87147858 L80.4089545,5.87147858 Z M76.9865518,5.87147858 L76.9865518,4.70528421 L73.7312896,4.70528421 L73.7312896,3.48558093 L76.6130058,3.48558093 L76.6130058,2.34339057 L73.7312896,2.34339057 L73.7312896,1.33672279 L76.8852062,1.33672279 L76.8852062,0.166527755 L72.1293929,0.166527755 L72.1293929,5.87147858 L76.9865518,5.87147858 Z M60.5441617,5.2223704 C61.106603,5.76096016 61.8690825,6.030005 62.8326614,6.030005 C63.7988932,6.030005 64.5656175,5.76046008 65.1338956,5.22037006 C65.701643,4.68128021 65.9860473,3.94915819 65.9860473,3.02500417 C65.9860473,2.10035006 65.701643,1.36872812 65.1338956,0.82913819 C64.5656175,0.289548258 63.7988932,0.0195032505 62.8326614,0.0195032505 C61.8690825,0.0195032505 61.106603,0.288548091 60.5441617,0.827137856 C59.9817203,1.36522754 59.699969,2.09784964 59.699969,3.02500417 C59.699969,3.95215869 59.9817203,4.68428071 60.5441617,5.2223704 Z M61.7167989,1.68878146 C61.9762648,1.37872979 62.3476883,1.22420403 62.8326614,1.22420403 C63.3202874,1.22420403 63.694364,1.37972995 63.9564829,1.6907818 C64.2186018,2.00183364 64.3496613,2.44640773 64.3496613,3.02500417 C64.3496613,3.60610102 64.2186018,4.0511752 63.9564829,4.36072679 C63.694364,4.67077846 63.3202874,4.8258043 62.8326614,4.8258043 C62.3476883,4.8258043 61.9762648,4.67077846 61.7167989,4.36072679 C61.457333,4.0511752 61.3278654,3.60610102 61.3278654,3.02500417 C61.3278654,2.44390732 61.457333,1.99833306 61.7167989,1.68878146 Z M56.1549965,5.87147858 L56.1549965,1.32472079 L57.9484416,1.32472079 L57.9484416,0.166527755 L52.759124,0.166527755 L52.759124,1.32472079 L54.5520385,1.32472079 L54.5520385,5.87147858 L56.1549965,5.87147858 Z M46.9558963,5.87147858 L46.9558963,2.76196033 L44.1341385,2.76196033 L44.1341385,3.85714286 L45.5275074,3.85714286 C45.4686102,4.16719453 45.315796,4.40923487 45.071187,4.58176363 C44.8260475,4.75479247 44.5161741,4.84130688 44.1426281,4.84130688 C43.6746345,4.84130688 43.3016191,4.67777963 43.0225208,4.35172529 C42.7434226,4.02467078 42.6033428,3.58509752 42.6033428,3.03250542 C42.6033428,2.47241207 42.745545,2.02183697 43.0288881,1.68128021 C43.3117006,1.34022337 43.6836547,1.17019503 44.1426281,1.17019503 C44.4456036,1.17019503 44.7018859,1.23270545 44.9120055,1.3572262 C45.1210639,1.48274712 45.2770618,1.66827805 45.378938,1.91381897 L46.9134478,1.91381897 C46.7861026,1.3092182 46.4836577,0.83963994 46.0061132,0.503583931 C45.5285686,0.168028005 44.9226176,0 44.1887908,0 C43.2172529,0 42.4388552,0.281546924 41.8535978,0.84414069 C41.268871,1.40773462 40.975977,2.15485914 40.975977,3.0870145 C40.975977,3.51808635 41.0465475,3.91565261 41.1887497,4.27971329 C41.3298906,4.64327388 41.5384184,4.95982664 41.8132719,5.2283714 C42.0769826,5.4894149 42.3804887,5.68694782 42.7248514,5.82097016 C43.0692141,5.9549925 43.4443519,6.02250375 43.8486729,6.02250375 C44.2821773,6.02250375 44.6615599,5.9489915 44.9857596,5.80346724 C45.3104899,5.65794299 45.5901188,5.4354059 45.8251768,5.13585598 L45.9530527,5.87147858 L46.9558963,5.87147858 Z M34.8209582,5.87147858 L34.8209582,4.15169195 C34.8209582,3.90415069 34.8140603,3.62010335 34.799734,3.29954992 C34.7854076,2.97999667 34.7625916,2.63393899 34.7318165,2.26187698 C34.9217731,2.58993166 35.1016482,2.8949825 35.2714419,3.17752959 C35.4417661,3.46057676 35.5988252,3.71561927 35.7431498,3.94265711 L36.9715005,5.87147858 L38.7012731,5.87147858 L38.7012731,0.166527755 L37.1540287,0.166527755 L37.1540287,1.62677113 C37.1540287,1.91381897 37.1603959,2.24537423 37.171008,2.62193699 C37.1826813,2.99899983 37.1996607,3.40306718 37.2224767,3.83463911 C37.0691319,3.54259043 36.9062361,3.24704117 36.7337895,2.94749125 C36.5608122,2.64794132 36.3777534,2.34589098 36.1851438,2.04084014 L35.0040169,0.166527755 L33.2699995,0.166527755 L33.2699995,5.87147858 L34.8209582,5.87147858 Z M29.1042191,5.87147858 L30.7018709,5.87147858 L30.7018709,0.166527755 L29.1042191,0.166527755 L29.1042191,5.87147858 Z M23.7053124,5.87147858 C24.7368087,5.87147858 25.5083085,5.63493916 26.0192811,5.16236039 C26.5307844,4.69028171 26.7865361,3.97766294 26.7865361,3.02500417 C26.7865361,2.10285048 26.5392741,1.39673279 26.0447502,0.904150692 C25.5507569,0.412568761 24.8402767,0.166527755 23.9133096,0.166527755 L21.2401212,0.166527755 L21.2401212,5.87147858 L23.7053124,5.87147858 Z M22.8510382,1.3752292 L23.7228224,1.3752292 C24.2184075,1.3752292 24.581872,1.50775129 24.8121546,1.7717953 C25.0434984,2.03633939 25.1586397,2.45440907 25.1586397,3.02500417 C25.1586397,3.59309885 25.0434984,4.01016836 24.8121546,4.27571262 C24.581872,4.54175696 24.2184075,4.67477913 23.7228224,4.67477913 L22.8510382,4.67477913 L22.8510382,1.3752292 Z M13.1048842,5.87147858 L14.7667393,5.87147858 L15.1233059,4.8258043 L17.2144205,4.8258043 L17.5969868,5.87147858 L19.3182696,5.87147858 L17.1082995,0.166527755 L15.3573027,0.166527755 L13.1048842,5.87147858 Z M16.1776182,1.67727955 L16.8748333,3.64460743 L15.5058722,3.64460743 L16.1776182,1.67727955 Z M11.4589472,5.87147858 L11.4589472,4.70528421 L8.20368509,4.70528421 L8.20368509,3.48558093 L11.0854013,3.48558093 L11.0854013,2.34339057 L8.20368509,2.34339057 L8.20368509,1.33672279 L11.3570711,1.33672279 L11.3570711,0.166527755 L6.60125776,0.166527755 L6.60125776,5.87147858 L11.4589472,5.87147858 Z M4.63695776,5.87147858 L4.63695776,4.63627271 L1.60667217,4.63627271 L1.60667217,0.166527755 L0,0.166527755 L0,5.87147858 L4.63695776,5.87147858 L4.63695776,5.87147858 Z" id="Fill-1" fill="#9D9D9C" mask="url(#mask-mkhz1pc1_o-2)"></path>
                </g>
                <path d="M112,0.437443863 L112,15.6522882 C112,19.1197669 111.037597,24 102.373819,24 C97.9886428,24 93.3547918,22.8895656 92.71319,18.1770544 L99.7002987,18.1770544 C99.7713486,18.345302 99.9500498,18.5808487 100.092688,18.7827459 C100.520064,19.3884374 101.268778,20.0619537 102.160131,20.0619537 C104.442339,20.0619537 104.940765,17.503538 104.940765,16.0560825 L104.869715,14.4403794 C103.728611,15.9887835 102.018032,16.864197 99.9139866,16.864197 C94.4598326,16.864197 92,13.0265735 92,8.34823756 C92,3.80397397 94.7451086,0 100.0211,0 C102.089081,0 104.04995,0.773939142 104.940765,2.55841567 L104.940765,0.437443863 L112,0.437443863 Z M99.0581586,8.31406226 C99.0581586,10.300436 99.7002987,12.5891296 102.231181,12.5891296 C104.83419,12.5891296 105.119466,10.2331369 105.119466,8.28093851 C105.119466,6.36186387 104.121,4.84710934 102.053018,4.84710934 C100.056625,4.84710934 99.0581586,6.46281245 99.0581586,8.31406226 L99.0581586,8.31406226 Z" id="Fill-4" fill="#FFFFFE"></path>
                <path d="M90.1447103,7.07735297 L90.1447103,14.5032099 C90.1447103,15.8623753 90.2157602,17.3957927 91,18.5464003 L83.7986651,18.5464003 C83.6205022,18.0584948 83.5133891,17.3266365 83.4784025,16.8387309 C81.9804344,18.5120945 79.8053395,19 77.5242081,19 C73.9593347,19 71,17.3266365 71,13.5268543 C71,7.80921128 77.845009,8.01831365 81.4459456,7.3556116 C82.4088866,7.18135962 83.3707511,6.903101 83.3707511,5.75194887 C83.3707511,4.53218503 82.1946605,4.07858535 81.0535565,4.07858535 C78.8789999,4.07858535 78.4510859,5.15949215 78.415561,5.92674539 L71.8552897,5.92674539 C72.0695158,0.836409492 76.9897193,0 81.3743575,0 C90.2157602,0 90.1447103,3.59067981 90.1447103,7.07735297 Z M83.3707511,12.0974435 L83.3707511,10.42408 C82.5154614,10.8422848 81.5525204,11.0862375 80.5895794,11.2958844 C79.0216379,11.6438439 78.2013349,12.0271982 78.2013349,13.2475066 C78.2013349,14.0844606 79.1282127,14.9208701 80.4119547,14.9208701 C82.0164976,14.9208701 83.2641763,13.9799094 83.3707511,12.0974435 L83.3707511,12.0974435 Z" id="Fill-5" fill="#FFFFFE"></path>
                <g id="Group-9">
                    <mask id="mask-mkhz1pc1_o-4" fill="white">
                        <use xlink:href="#path-mkhz1pc1_o-3"></use>
                    </mask>
                    <g id="Clip-7"></g>
                    <path d="M41,10.8686824 L27.6662058,10.8686824 C27.8415599,12.891398 29.0346031,14.3314515 31.2103706,14.3314515 C32.3324245,14.3314515 33.5614921,13.9196251 34.1225191,13.0622336 L40.6137973,13.0622336 C39.2099054,16.9025549 35.385492,18.6858864 31.2453354,18.6858864 C25.4205086,18.6858864 21.0345385,15.3254044 21.0345385,9.39435457 C21.0345385,4.21733794 24.8939167,0 30.6482841,0 C37.876473,0 41,3.94314404 41,10.8686824 Z M27.7011707,7.33736472 L34.332838,7.33736472 C34.332838,5.69166574 33.0698651,4.3544349 31.2797705,4.3544349 C29.2099571,4.3544349 28.0169139,5.41693629 27.7011707,7.33736472 L27.7011707,7.33736472 Z" id="Fill-6" fill="#FFFFFE" mask="url(#mask-mkhz1pc1_o-4)"></path>
                    <path d="M-0.0317862311,24 L-0.0317862311,0.445565101 L6.6703406,0.445565101 L6.74027031,2.40026777 C7.61757029,1.2692179 8.67022431,0 12.0734701,0 C17.2313159,0 19.7228266,4.97190673 19.7228266,9.42862881 C19.7228266,13.611157 18.073651,18.6858864 11.9685756,18.6858864 C9.89823238,18.6858864 8.03820808,17.7942207 6.91562435,16.2856187 L6.91562435,24 L-0.0317862311,24 Z M6.6703406,9.36008033 C6.6703406,11.4513444 7.23189735,13.7487895 9.72287833,13.7487895 C12.2138593,13.7487895 12.7754161,11.4513444 12.7754161,9.36008033 C12.7754161,7.23400647 12.2138593,4.93709695 9.72287833,4.93709695 C7.23189735,4.93709695 6.6703406,7.23400647 6.6703406,9.36008033 L6.6703406,9.36008033 Z" id="Fill-8" fill="#FFFFFE" mask="url(#mask-mkhz1pc1_o-4)"></path>
                </g>
                <polyline id="Fill-10" fill="#FFFFFE" points="72 0 64.8003677 0 62.2838735 11.1330544 62.1445666 11.1330544 59.7325526 0 53.2669197 0 50.9599135 11.1330544 48.1996323 0 41 0 46.6614523 18 53.7560768 18 56.4477599 6.93628675 59.1383877 18 66.2335399 18 72 0"></polyline>
                <path d="M204,24 L204,0.445565101 L210.785379,0.445565101 L210.856177,2.40026777 C211.743839,1.2692179 212.810105,0 216.255625,0 C221.47754,0 224,4.97190673 224,9.42862881 C224,13.611157 222.330875,18.6858864 216.149964,18.6858864 C214.053367,18.6858864 212.170774,17.7942207 211.03371,16.2856187 L211.03371,24 L204,24 Z M210.785379,9.36008033 C210.785379,11.4513444 211.353375,13.7487895 213.875835,13.7487895 C216.398294,13.7487895 216.96629,11.4513444 216.96629,9.36008033 C216.96629,7.23454201 216.398294,4.93709695 213.875835,4.93709695 C211.353375,4.93709695 210.785379,7.23454201 210.785379,9.36008033 L210.785379,9.36008033 Z" id="Fill-11" fill="#FFFFFE"></path>
                <path d="M153.270836,18 L153.270836,10.8063371 C153.270836,9.45125422 153.61396,8.45685786 154.301269,7.82261992 C154.988047,7.18785389 156.063028,6.87099897 157.526211,6.87099897 C157.74895,6.87099897 157.983886,6.87892035 158.22996,6.89529118 C158.474972,6.91113393 158.732183,6.93014523 159,6.95126889 L159,0 L158.346632,0 C156.850569,0 155.652552,0.293090802 154.753641,0.879272407 C153.8542,1.46545401 153.164239,2.39278275 152.68429,3.66125862 L152.68429,0.467889101 L146,0.467889101 L146,18 L153.270836,18" id="Fill-12" fill="#FFFFFE"></path>
                <path d="M194.634335,1 L194.634335,10.0163713 C194.634335,11.2098932 194.404394,12.1023941 193.943972,12.6933459 C193.483011,13.2848257 192.793188,13.5805657 191.872345,13.5805657 C190.951502,13.5805657 190.303241,13.32549 189.928103,12.8142824 C189.553504,12.304131 189.366205,11.381528 189.366205,10.0480577 L189.366205,1 L182,1 L182,10.0808004 C182,12.1995658 182.113351,13.7067832 182.341133,14.6045652 C182.567835,15.5028752 182.954848,16.2638775 183.500553,16.8870438 C184.114269,17.5862575 184.864545,18.1133083 185.750843,18.4676681 C186.637681,18.822556 187.643808,19 188.768683,19 C190.110005,19 191.312066,18.7502054 192.375408,18.250088 C193.43767,17.7499707 194.401155,16.9842155 195.265323,15.9517662 L195.265323,18.5326253 L202,18.5326253 L202,1 L194.634335,1" id="Fill-13" fill="#FFFFFE"></path>
                <path d="M143,0.437443863 L143,15.6522882 C143,19.1197669 142.037597,24 133.373819,24 C128.989181,24 124.354792,22.8895656 123.71319,18.1770544 L130.700837,18.1770544 C130.771887,18.345302 130.95005,18.5808487 131.092688,18.7827459 C131.520064,19.3884374 132.269317,20.0619537 133.160131,20.0619537 C135.442339,20.0619537 135.941303,17.503538 135.941303,16.0560825 L135.869715,14.4403794 C134.728611,15.9887835 133.018032,16.864197 130.914525,16.864197 C125.459833,16.864197 123,13.0265735 123,8.34823756 C123,3.80397397 125.745109,0 131.0211,0 C133.089081,0 135.04995,0.773939142 135.941303,2.55841567 L135.941303,0.437443863 L143,0.437443863 Z M130.058697,8.31406226 C130.058697,10.300436 130.700837,12.5891296 133.232258,12.5891296 C135.83419,12.5891296 136.119466,10.2331369 136.119466,8.28093851 C136.119466,6.36186387 135.121,4.84710934 133.053018,4.84710934 C131.057163,4.84710934 130.058697,6.46281245 130.058697,8.31406226 L130.058697,8.31406226 Z" id="Fill-14" fill="#FFFFFE"></path>
                <path d="M172.24567,13.0062799 C171.784184,13.7298196 171.038343,14.0910446 170.008147,14.0910446 C168.977425,14.0910446 168.23684,13.7325438 167.786918,13.0144524 C167.336469,12.2969059 167.111508,11.1173401 167.111508,9.47575488 C167.111508,7.84452155 167.336469,6.67585238 167.786918,5.9686577 C168.23684,5.26255269 168.977425,4.90841052 170.008147,4.90841052 C171.038343,4.90841052 171.784184,5.26527686 172.24567,5.97683021 C172.706631,6.68947323 172.937374,7.85541823 172.937374,9.47575488 C172.937374,11.1064434 172.706631,12.2832851 172.24567,13.0062799 Z M177.33936,2.53565796 C175.565425,0.845037708 173.121863,0 170.008147,0 C166.894431,0 164.447715,0.845037708 162.669049,2.53565796 C160.889333,4.22627821 160,6.53964385 160,9.47575488 C160,12.4331144 160.892486,14.7595561 162.676934,16.4561695 C164.461381,18.1516933 166.904943,19 170.008147,19 C173.110299,19 175.551759,18.1516933 177.330951,16.4561695 C179.110667,14.7595561 180,12.4331144 180,9.47575488 C180,6.53964385 179.113295,4.22627821 177.33936,2.53565796 L177.33936,2.53565796 Z" id="Fill-15" fill="#FFFFFE"></path>
            </g>
        </g>
    </g>
</svg>